<?xml version="1.0" encoding="UTF-8"?>
<!DOCTYPE svg PUBLIC "-//W3C//DTD SVG 1.1//EN" "http://www.w3.org/Graphics/SVG/1.1/DTD/svg11.dtd">
<svg xmlns="http://www.w3.org/2000/svg" version="1.1" width="1047px" height="316px" style="shape-rendering:geometricPrecision; text-rendering:geometricPrecision; image-rendering:optimizeQuality; fill-rule:evenodd; clip-rule:evenodd" xmlns:xlink="http://www.w3.org/1999/xlink">
<g><path style="opacity:1" fill="#fefefe" d="M -0.5,-0.5 C 348.5,-0.5 697.5,-0.5 1046.5,-0.5C 1046.5,104.833 1046.5,210.167 1046.5,315.5C 697.5,315.5 348.5,315.5 -0.5,315.5C -0.5,210.167 -0.5,104.833 -0.5,-0.5 Z"/></g>
<g><path style="opacity:1" fill="#d5d2cd" d="M 402.5,67.5 C 402.5,66.1667 402.5,64.8333 402.5,63.5C 399.482,63.7038 396.482,64.0371 393.5,64.5C 393.5,64.1667 393.5,63.8333 393.5,63.5C 398.327,62.5626 402.993,61.3959 407.5,60C 405.686,62.4795 404.019,64.9795 402.5,67.5 Z"/></g>
<g><path style="opacity:1" fill="#d0cac0" d="M 369.5,63.5 C 377.309,65.6524 385.309,65.9858 393.5,64.5C 396.482,64.0371 399.482,63.7038 402.5,63.5C 402.5,64.8333 402.5,66.1667 402.5,67.5C 387.526,97.7732 371.693,127.773 355,157.5C 351.35,165.469 347.683,173.469 344,181.5C 340.052,192.799 343.886,197.299 355.5,195C 358.618,193.978 361.618,192.811 364.5,191.5C 366.527,191.662 368.527,191.495 370.5,191C 371.7,188.323 373.367,188.323 375.5,191C 367.758,196.601 359.258,201.767 350,206.5C 345.967,207.373 341.967,208.373 338,209.5C 336.331,208.834 334.831,208.834 333.5,209.5C 331.87,207.736 329.87,206.736 327.5,206.5C 324.802,201.249 323.802,195.582 324.5,189.5C 326.814,179.882 330.481,170.882 335.5,162.5C 337.398,160.75 338.731,158.584 339.5,156C 338.833,155.333 338.167,155.333 337.5,156C 335.681,156.74 334.348,157.907 333.5,159.5C 322.673,166.57 311.339,172.903 299.5,178.5C 298.892,183.301 297.892,187.968 296.5,192.5C 293.639,192.513 292.639,193.679 293.5,196C 290.954,198.884 288.787,202.051 287,205.5C 285.174,207.074 283.007,207.907 280.5,208C 280.957,208.414 281.291,208.914 281.5,209.5C 279.42,211.534 277.42,213.534 275.5,215.5C 265.058,222.891 253.392,225.391 240.5,223C 233.877,219.807 231.71,214.64 234,207.5C 238.542,200.963 244.375,195.796 251.5,192C 260.541,187.811 269.541,183.645 278.5,179.5C 278.987,175.08 278.32,170.747 276.5,166.5C 274.196,158.003 273.196,149.337 273.5,140.5C 278.285,126.21 287.785,116.21 302,110.5C 308.769,111.912 311.435,115.912 310,122.5C 304.903,129.924 298.237,135.59 290,139.5C 289.51,141.545 289.677,143.545 290.5,145.5C 290.173,150.214 290.507,154.88 291.5,159.5C 291.964,161.975 292.964,163.975 294.5,165.5C 295.461,167.265 295.795,169.265 295.5,171.5C 305.857,167.154 315.857,161.987 325.5,156C 331.384,151.567 337.384,147.401 343.5,143.5C 346.167,142.167 348.833,140.833 351.5,139.5C 352.92,135.711 355.253,132.377 358.5,129.5C 358.167,128.833 357.833,128.167 357.5,127.5C 359.076,123.762 361.243,120.429 364,117.5C 364.497,114.854 364.664,112.187 364.5,109.5C 367.106,103.578 370.106,97.9115 373.5,92.5C 374.117,92.6107 374.617,92.944 375,93.5C 379.138,88.6327 381.305,82.966 381.5,76.5C 376.833,76.5 372.167,76.5 367.5,76.5C 366.969,73.2206 364.969,71.8872 361.5,72.5C 360.235,71.4855 359.569,69.9855 359.5,68C 359.725,65.4719 360.058,62.9719 360.5,60.5C 363.594,61.2134 366.594,62.2134 369.5,63.5 Z"/></g>
<g><path style="opacity:1" fill="#f4f1ec" d="M 369.5,63.5 C 377.489,64.6148 385.489,64.6148 393.5,63.5C 393.5,63.8333 393.5,64.1667 393.5,64.5C 385.309,65.9858 377.309,65.6524 369.5,63.5 Z"/></g>
<g><path style="opacity:1" fill="#d0cac1" d="M 573.5,148.5 C 569.798,152.875 566.798,157.875 564.5,163.5C 563.914,163.291 563.414,162.957 563,162.5C 560.641,165.422 560.141,168.589 561.5,172C 559.45,176.51 557.45,181.01 555.5,185.5C 555.771,188.047 556.771,190.047 558.5,191.5C 560.396,194.26 563.063,195.094 566.5,194C 572.284,192.211 577.617,189.545 582.5,186C 594.737,177.765 606.404,168.765 617.5,159C 621.714,154.454 625.547,149.621 629,144.5C 632.737,141.583 636.237,138.583 639.5,135.5C 639.5,136.833 639.5,138.167 639.5,139.5C 638.325,139.281 637.325,139.614 636.5,140.5C 637.48,141.981 638.647,143.315 640,144.5C 641.509,143.91 643.009,143.244 644.5,142.5C 643.145,141.325 643.312,140.325 645,139.5C 645.671,140.252 646.504,140.586 647.5,140.5C 635.801,154.23 628.135,169.897 624.5,187.5C 624.969,193.661 628.302,195.828 634.5,194C 637.618,192.941 640.618,191.608 643.5,190C 658.978,178.018 673.644,165.184 687.5,151.5C 687.762,152.978 687.429,154.311 686.5,155.5C 684.058,156.384 683.225,158.051 684,160.5C 685.145,159.316 686.312,159.316 687.5,160.5C 685.42,162.573 683.754,164.907 682.5,167.5C 673.427,176.729 663.76,185.563 653.5,194C 644.085,200.707 634.085,206.374 623.5,211C 612.938,213.902 606.938,210.069 605.5,199.5C 604.849,191.957 606.182,184.79 609.5,178C 609.333,177.5 609.167,177 609,176.5C 607.27,178.402 605.437,180.069 603.5,181.5C 592.049,190.399 580.049,198.565 567.5,206C 562.898,207.867 558.232,209.534 553.5,211C 542.606,213.393 537.606,209.06 538.5,198C 539.984,187.902 542.65,178.069 546.5,168.5C 549.037,166.427 550.204,163.76 550,160.5C 547.96,162.37 546.127,164.37 544.5,166.5C 530.396,182.777 514.063,196.277 495.5,207C 491.693,208.881 487.693,210.047 483.5,210.5C 479.454,210.048 475.454,209.381 471.5,208.5C 470.833,207.833 470.167,207.167 469.5,206.5C 467.683,201.759 467.016,196.759 467.5,191.5C 467.851,188.097 468.518,184.763 469.5,181.5C 471.099,180.201 471.599,178.535 471,176.5C 469.955,177.373 469.122,178.373 468.5,179.5C 455.206,191.822 440.206,201.655 423.5,209C 422.207,209.49 420.873,209.657 419.5,209.5C 418.178,209.67 417.011,209.337 416,208.5C 414.006,209.664 411.839,210.331 409.5,210.5C 406.024,209.896 402.691,208.896 399.5,207.5C 397.926,206.016 396.593,204.349 395.5,202.5C 395.353,197.786 395.686,193.119 396.5,188.5C 398.555,183.39 400.888,178.39 403.5,173.5C 405.142,170.898 406.808,168.231 408.5,165.5C 407.575,164.438 406.575,164.438 405.5,165.5C 405.631,164.624 405.298,163.957 404.5,163.5C 403.099,166.031 401.433,168.364 399.5,170.5C 398.311,171.429 396.978,171.762 395.5,171.5C 395.371,165.964 398.038,162.964 403.5,162.5C 403.482,158.363 405.482,155.863 409.5,155C 410.85,153.282 412.017,151.448 413,149.5C 413.667,150.833 414.333,150.833 415,149.5C 415.49,148.207 415.657,146.873 415.5,145.5C 417.305,143.266 419.138,140.933 421,138.5C 421.498,135.518 421.665,132.518 421.5,129.5C 427.477,128.835 433.477,128.502 439.5,128.5C 439.888,134.171 438.721,139.504 436,144.5C 428.617,158.605 421.283,172.605 414,186.5C 410.817,195.969 413.984,199.803 423.5,198C 428.733,196.384 433.733,194.217 438.5,191.5C 454.492,180.244 469.659,167.911 484,154.5C 496.45,135.209 513.617,122.209 535.5,115.5C 543.577,114.005 551.577,114.338 559.5,116.5C 563.061,117.863 566.561,119.53 570,121.5C 571.261,121.241 572.261,120.574 573,119.5C 573.573,117.359 574.406,115.359 575.5,113.5C 577.408,112.514 578.408,110.848 578.5,108.5C 583.909,97.9079 589.575,87.4079 595.5,77C 591.335,76.6882 587.168,76.8548 583,77.5C 577.647,78.2922 573.98,76.2922 572,71.5C 571.176,68.1177 571.343,64.7844 572.5,61.5C 577.884,63.9229 583.551,64.9229 589.5,64.5C 595.534,64.3983 601.534,63.8983 607.5,63C 612.144,61.5626 616.81,60.5626 621.5,60C 605.565,89.7155 589.565,119.216 573.5,148.5 Z"/></g>
<g><path style="opacity:1" fill="#d0c9c0" d="M 713.5,63.5 C 724.138,64.6909 734.804,64.6909 745.5,63.5C 747.833,63.5 750.167,63.5 752.5,63.5C 752.067,66.1656 751.567,68.8323 751,71.5C 748.259,72.2215 747.259,73.8882 748,76.5C 748.556,74.4049 749.056,74.2382 749.5,76C 749.011,77.1385 748.678,78.3052 748.5,79.5C 735.743,103.347 723.243,127.347 711,151.5C 710.051,153.093 708.885,154.426 707.5,155.5C 705.983,155.511 704.816,156.177 704,157.5C 704.148,161.12 702.648,163.62 699.5,165C 699.665,166.117 699.998,167.284 700.5,168.5C 696.372,176.087 693.372,184.087 691.5,192.5C 696.025,197.605 701.358,198.605 707.5,195.5C 707.137,194.817 706.804,194.15 706.5,193.5C 707.71,193.068 708.71,192.401 709.5,191.5C 716.833,187.167 724.167,182.833 731.5,178.5C 733.129,180.06 734.296,179.727 735,177.5C 735.667,180.167 736.333,180.167 737,177.5C 738.205,178.071 739.372,178.738 740.5,179.5C 740.062,180.506 739.396,180.506 738.5,179.5C 737.571,180.689 737.238,182.022 737.5,183.5C 737.5,184.167 737.167,184.5 736.5,184.5C 732.501,184.074 730.001,185.741 729,189.5C 728.667,189.167 728.333,188.833 728,188.5C 723.959,192.631 719.126,195.464 713.5,197C 711.5,199 709.5,201 707.5,203C 701.583,203.712 696.083,205.545 691,208.5C 689.204,207.233 687.371,207.233 685.5,208.5C 683.291,207.894 681.124,207.227 679,206.5C 677.921,197.246 678.921,188.246 682,179.5C 682.333,179.833 682.667,180.167 683,180.5C 683.953,177.568 684.453,174.568 684.5,171.5C 684.5,170.5 684.5,169.5 684.5,168.5C 685.931,167.097 687.098,165.431 688,163.5C 688.74,162.251 688.573,161.251 687.5,160.5C 686.312,159.316 685.145,159.316 684,160.5C 683.225,158.051 684.058,156.384 686.5,155.5C 687.429,154.311 687.762,152.978 687.5,151.5C 691.651,146.075 696.318,141.075 701.5,136.5C 693.028,128.621 683.028,124.788 671.5,125C 662.044,127.964 654.044,133.131 647.5,140.5C 646.504,140.586 645.671,140.252 645,139.5C 643.312,140.325 643.145,141.325 644.5,142.5C 643.009,143.244 641.509,143.91 640,144.5C 638.647,143.315 637.48,141.981 636.5,140.5C 637.325,139.614 638.325,139.281 639.5,139.5C 639.5,138.167 639.5,136.833 639.5,135.5C 642.09,135.082 644.423,134.082 646.5,132.5C 648.073,129.093 650.74,126.26 654.5,124C 660.121,122.071 665.787,120.238 671.5,118.5C 671.709,117.914 672.043,117.414 672.5,117C 679.167,116.333 685.833,116.333 692.5,117C 698.185,119.23 703.185,121.396 707.5,123.5C 711.353,122.304 713.353,119.637 713.5,115.5C 718.071,104.688 723.405,94.3551 729.5,84.5C 730.222,84.9175 730.722,85.5842 731,86.5C 732.795,83.5621 734.128,80.5621 735,77.5C 732.366,75.587 729.366,74.587 726,74.5C 721.782,75.0687 717.615,75.2354 713.5,75C 712.291,72.0505 711.291,68.2172 710.5,63.5C 711.5,63.5 712.5,63.5 713.5,63.5 Z"/></g>
<g><path style="opacity:1" fill="#d1cec6" d="M 748.5,79.5 C 748.678,78.3052 749.011,77.1385 749.5,76C 749.056,74.2382 748.556,74.4049 748,76.5C 747.259,73.8882 748.259,72.2215 751,71.5C 751.567,68.8323 752.067,66.1656 752.5,63.5C 750.167,63.5 747.833,63.5 745.5,63.5C 749.93,61.591 754.597,60.4244 759.5,60C 756.172,66.8376 752.505,73.3376 748.5,79.5 Z"/></g>
<g><path style="opacity:1" fill="#d2cec7" d="M 713.5,63.5 C 712.5,63.5 711.5,63.5 710.5,63.5C 711.291,68.2172 712.291,72.0505 713.5,75C 717.615,75.2354 721.782,75.0687 726,74.5C 729.366,74.587 732.366,75.587 735,77.5C 734.128,80.5621 732.795,83.5621 731,86.5C 730.722,85.5842 730.222,84.9175 729.5,84.5C 731.043,82.0722 732.043,79.4056 732.5,76.5C 725.774,77.896 719.107,77.7294 712.5,76C 709.501,71.5229 708.834,66.6895 710.5,61.5C 711.739,61.9424 712.739,62.6091 713.5,63.5 Z"/></g>
<g><path style="opacity:1" fill="#d2cfc7" d="M 361.5,72.5 C 364.969,71.8872 366.969,73.2206 367.5,76.5C 372.167,76.5 376.833,76.5 381.5,76.5C 381.305,82.966 379.138,88.6327 375,93.5C 374.617,92.944 374.117,92.6107 373.5,92.5C 375.354,88.9469 377.021,85.2803 378.5,81.5C 379.391,80.7387 380.058,79.7387 380.5,78.5C 377.232,77.513 373.898,77.1796 370.5,77.5C 366.103,78.1392 363.103,76.4725 361.5,72.5 Z"/></g>
<g><path style="opacity:1" fill="#eeeae5" d="M 370.5,77.5 C 373.898,77.1796 377.232,77.513 380.5,78.5C 380.058,79.7387 379.391,80.7387 378.5,81.5C 378.5,80.5 378.5,79.5 378.5,78.5C 375.615,78.8064 372.948,78.4731 370.5,77.5 Z"/></g>
<g><path style="opacity:1" fill="#d0c9c0" d="M 215.5,146.5 C 212.839,150.31 211.839,154.644 212.5,159.5C 211.446,168.324 210.446,177.157 209.5,186C 209.149,192.6 210.816,198.6 214.5,204C 213.798,205.856 212.464,207.023 210.5,207.5C 208.167,207.5 205.833,207.5 203.5,207.5C 203.649,208.552 203.483,209.552 203,210.5C 201.87,209.886 200.537,209.886 199,210.5C 196.927,209.252 194.761,208.252 192.5,207.5C 191.662,207.158 191.328,206.492 191.5,205.5C 190.203,196.505 190.203,187.505 191.5,178.5C 195.483,174.56 196.816,169.893 195.5,164.5C 191.757,164.541 191.59,163.874 195,162.5C 195.617,161.551 195.451,160.718 194.5,160C 199.984,153.715 201.651,146.549 199.5,138.5C 200.159,135.545 200.492,132.545 200.5,129.5C 203.551,123.67 205.551,117.336 206.5,110.5C 207.492,107.862 208.492,105.195 209.5,102.5C 209.043,101.702 208.376,101.369 207.5,101.5C 204.183,103.368 200.85,105.368 197.5,107.5C 194.424,110.592 191.091,113.425 187.5,116C 185.806,119.355 183.14,121.689 179.5,123C 178.62,124.356 178.286,125.856 178.5,127.5C 174.729,130.107 170.896,132.44 167,134.5C 165.941,134.37 165.108,133.87 164.5,133C 166.16,131.512 167.16,129.679 167.5,127.5C 173.403,123.859 179.069,119.692 184.5,115C 185.337,113.989 185.67,112.822 185.5,111.5C 189.5,111.5 191.5,109.5 191.5,105.5C 201.019,94.8136 212.353,86.6469 225.5,81C 229.473,80.0023 233.473,79.6689 237.5,80C 227.174,101.121 219.841,123.288 215.5,146.5 Z"/></g>
<g><path style="opacity:1" fill="#d0cbc3" d="M 484.5,80.5 C 485.465,81.7211 485.298,83.0544 484,84.5C 472.164,97.1593 457.997,105.826 441.5,110.5C 442.288,105.197 444.288,100.363 447.5,96C 452.234,95.3167 456.9,94.3167 461.5,93C 469.548,89.3132 477.215,85.1466 484.5,80.5 Z"/></g>
<g><path style="opacity:1" fill="#d0cac0" d="M 799.5,102.5 C 799.586,100.323 800.253,98.323 801.5,96.5C 806.219,95.6616 810.886,94.6616 815.5,93.5C 818.74,93.2322 821.906,92.5655 825,91.5C 825.5,91.6667 826,91.8333 826.5,92C 825.663,93.0113 825.33,94.1779 825.5,95.5C 817.041,99.3873 808.708,103.721 800.5,108.5C 799.534,106.604 799.201,104.604 799.5,102.5 Z"/></g>
<g><path style="opacity:1" fill="#d1cdc6" d="M 799.5,102.5 C 799.201,104.604 799.534,106.604 800.5,108.5C 808.708,103.721 817.041,99.3873 825.5,95.5C 825.33,94.1779 825.663,93.0113 826.5,92C 826,91.8333 825.5,91.6667 825,91.5C 821.906,92.5655 818.74,93.2322 815.5,93.5C 823.811,89.5924 831.978,85.2591 840,80.5C 838.49,85.0522 835.657,88.8855 831.5,92C 823.844,97.8295 815.844,103.163 807.5,108C 804.077,109.904 800.41,110.737 796.5,110.5C 796.018,107.169 797.018,104.503 799.5,102.5 Z"/></g>
<g><path style="opacity:1" fill="#fdfdfc" d="M 207.5,101.5 C 208.376,101.369 209.043,101.702 209.5,102.5C 208.492,105.195 207.492,107.862 206.5,110.5C 205.883,110.611 205.383,110.944 205,111.5C 203.835,117.305 202.002,122.805 199.5,128C 200.056,128.383 200.389,128.883 200.5,129.5C 200.492,132.545 200.159,135.545 199.5,138.5C 197.566,144.25 196.232,150.25 195.5,156.5C 192.167,156.5 188.833,156.5 185.5,156.5C 174.321,156.828 163.321,156.495 152.5,155.5C 155.118,151.709 157.951,148.043 161,144.5C 166.728,138.72 172.561,133.054 178.5,127.5C 188.192,118.805 197.859,110.138 207.5,101.5 Z"/></g>
<g><path style="opacity:1" fill="#f6f4ef" d="M 206.5,110.5 C 205.551,117.336 203.551,123.67 200.5,129.5C 200.389,128.883 200.056,128.383 199.5,128C 202.002,122.805 203.835,117.305 205,111.5C 205.383,110.944 205.883,110.611 206.5,110.5 Z"/></g>
<g><path style="opacity:1" fill="#e2dfd8" d="M 578.5,108.5 C 578.408,110.848 577.408,112.514 575.5,113.5C 575.75,111.326 576.75,109.659 578.5,108.5 Z"/></g>
<g><path style="opacity:1" fill="#f3f2ee" d="M 559.5,116.5 C 551.577,114.338 543.577,114.005 535.5,115.5C 538.428,114.18 541.761,113.514 545.5,113.5C 548.833,113.667 552.167,113.833 555.5,114C 557.066,114.608 558.4,115.442 559.5,116.5 Z"/></g>
<g><path style="opacity:1" fill="#f3f1ed" d="M 675.5,114.5 C 681.319,113.347 687.319,113.181 693.5,114C 694.056,114.383 694.389,114.883 694.5,115.5C 688.203,114.68 681.869,114.347 675.5,114.5 Z"/></g>
<g><path style="opacity:1" fill="#d1cec6" d="M 207.5,101.5 C 197.859,110.138 188.192,118.805 178.5,127.5C 178.286,125.856 178.62,124.356 179.5,123C 183.14,121.689 185.806,119.355 187.5,116C 191.091,113.425 194.424,110.592 197.5,107.5C 200.85,105.368 204.183,103.368 207.5,101.5 Z"/></g>
<g><path style="opacity:1" fill="#d0cac0" d="M 938.5,146.5 C 936.602,157.368 933.769,168.035 930,178.5C 929.198,183.419 929.365,188.252 930.5,193C 934.103,193.843 937.436,193.343 940.5,191.5C 941.873,191.343 943.207,191.51 944.5,192C 943.809,194.98 942.809,197.814 941.5,200.5C 936.086,205.373 929.752,208.373 922.5,209.5C 916.583,209.565 912.583,206.899 910.5,201.5C 910.503,196.473 910.836,191.473 911.5,186.5C 916.165,169.503 920.832,152.503 925.5,135.5C 925.215,130.664 922.548,128.664 917.5,129.5C 915.801,129.66 914.134,129.494 912.5,129C 912.833,128.667 913.167,128.333 913.5,128C 909.679,126.856 909.512,125.356 913,123.5C 917.188,123.618 920.688,121.785 923.5,118C 925.78,117.767 927.78,116.934 929.5,115.5C 931.776,116.213 934.109,116.713 936.5,117C 937.223,121.295 938.89,125.462 941.5,129.5C 941.489,131.854 940.656,133.854 939,135.5C 938.501,139.152 938.335,142.818 938.5,146.5 Z"/></g>
<g><path style="opacity:1" fill="#d1cec7" d="M 191.5,105.5 C 191.5,109.5 189.5,111.5 185.5,111.5C 185.67,112.822 185.337,113.989 184.5,115C 179.069,119.692 173.403,123.859 167.5,127.5C 175.006,119.727 183.006,112.393 191.5,105.5 Z"/></g>
<g><path style="opacity:1" fill="#d1cdc6" d="M 675.5,114.5 C 681.869,114.347 688.203,114.68 694.5,115.5C 694.833,115.5 695.167,115.5 695.5,115.5C 699.039,117.351 702.706,119.018 706.5,120.5C 707.251,121.573 708.251,121.74 709.5,121C 710.615,118.869 711.948,117.035 713.5,115.5C 713.353,119.637 711.353,122.304 707.5,123.5C 703.185,121.396 698.185,119.23 692.5,117C 685.833,116.333 679.167,116.333 672.5,117C 672.043,117.414 671.709,117.914 671.5,118.5C 665.787,120.238 660.121,122.071 654.5,124C 650.74,126.26 648.073,129.093 646.5,132.5C 644.423,134.082 642.09,135.082 639.5,135.5C 649.021,124.401 661.021,117.401 675.5,114.5 Z"/></g>
<g><path style="opacity:1" fill="#f3f1ed" d="M 695.5,115.5 C 698.647,115.737 701.647,116.57 704.5,118C 705.381,118.708 706.047,119.542 706.5,120.5C 702.706,119.018 699.039,117.351 695.5,115.5 Z"/></g>
<g><path style="opacity:1" fill="#e2e0da" d="M 533.5,125.5 C 537.311,124.355 541.311,124.188 545.5,125C 546.056,125.383 546.389,125.883 546.5,126.5C 542.232,125.627 537.898,125.294 533.5,125.5 Z"/></g>
<g><path style="opacity:1" fill="#fefdfd" d="M 533.5,125.5 C 537.898,125.294 542.232,125.627 546.5,126.5C 552.622,128.934 558.289,132.267 563.5,136.5C 545.973,154.527 527.639,171.694 508.5,188C 503.815,191.199 498.815,193.699 493.5,195.5C 486.951,194.04 484.784,190.04 487,183.5C 489.175,175.133 492.009,167.133 495.5,159.5C 500.81,151.965 506.476,144.632 512.5,137.5C 518.48,131.678 525.48,127.678 533.5,125.5 Z"/></g>
<g><path style="opacity:1" fill="#fefdfd" d="M 687.5,151.5 C 673.644,165.184 658.978,178.018 643.5,190C 640.618,191.608 637.618,192.941 634.5,194C 628.302,195.828 624.969,193.661 624.5,187.5C 628.135,169.897 635.801,154.23 647.5,140.5C 654.044,133.131 662.044,127.964 671.5,125C 683.028,124.788 693.028,128.621 701.5,136.5C 696.318,141.075 691.651,146.075 687.5,151.5 Z"/></g>
<g><path style="opacity:1" fill="#f5f2eb" d="M 792.5,128.5 C 787.463,128.413 782.463,128.746 777.5,129.5C 780.186,128.009 783.186,127.343 786.5,127.5C 788.696,127.505 790.696,127.838 792.5,128.5 Z"/></g>
<g><path style="opacity:1" fill="#d0cac1" d="M 938.5,146.5 C 938.335,142.818 938.501,139.152 939,135.5C 940.656,133.854 941.489,131.854 941.5,129.5C 938.89,125.462 937.223,121.295 936.5,117C 934.109,116.713 931.776,116.213 929.5,115.5C 927.78,116.934 925.78,117.767 923.5,118C 920.688,121.785 917.188,123.618 913,123.5C 909.512,125.356 909.679,126.856 913.5,128C 913.167,128.333 912.833,128.667 912.5,129C 914.134,129.494 915.801,129.66 917.5,129.5C 912.293,133.419 906.96,137.252 901.5,141C 884.667,157.28 868.667,174.113 853.5,191.5C 851.897,191.312 850.563,191.812 849.5,193C 849.833,193.333 850.167,193.667 850.5,194C 845.857,197.575 842.857,202.242 841.5,208C 838.382,209.727 835.049,210.561 831.5,210.5C 830.883,210.389 830.383,210.056 830,209.5C 829.333,206.833 829.333,204.167 830,201.5C 835.218,187.183 841.218,173.183 848,159.5C 848.667,158.5 848.667,157.5 848,156.5C 832.525,171.968 816.025,186.135 798.5,199C 790.976,202.929 783.309,206.595 775.5,210C 755.534,215.033 747.701,207.533 752,187.5C 754.785,182.265 757.285,176.932 759.5,171.5C 761.064,168.726 762.897,166.059 765,163.5C 765.667,162.5 765.667,161.5 765,160.5C 762.295,163.036 759.795,165.703 757.5,168.5C 751.161,173.996 744.495,178.996 737.5,183.5C 737.238,182.022 737.571,180.689 738.5,179.5C 739.396,180.506 740.062,180.506 740.5,179.5C 739.372,178.738 738.205,178.071 737,177.5C 736.333,180.167 735.667,180.167 735,177.5C 734.296,179.727 733.129,180.06 731.5,178.5C 746.72,166.788 761.22,154.121 775,140.5C 776.014,136.759 776.847,133.093 777.5,129.5C 782.463,128.746 787.463,128.413 792.5,128.5C 793.748,129.334 794.415,130.667 794.5,132.5C 789.173,147.485 782.507,161.819 774.5,175.5C 773.5,175.5 772.5,175.5 771.5,175.5C 771.024,179.095 769.858,182.428 768,185.5C 767.19,189.358 767.357,193.024 768.5,196.5C 768.611,197.117 768.944,197.617 769.5,198C 772.833,198.667 776.167,198.667 779.5,198C 786.973,195.098 793.973,191.431 800.5,187C 820.222,172.115 838.555,155.615 855.5,137.5C 856.222,137.082 856.722,136.416 857,135.5C 857.498,132.183 857.665,128.85 857.5,125.5C 861.769,124.197 866.103,123.197 870.5,122.5C 872.167,122.667 873.833,122.833 875.5,123C 876.097,124.062 876.43,125.228 876.5,126.5C 872.332,139.833 867.332,152.833 861.5,165.5C 860.042,169.183 858.375,172.85 856.5,176.5C 857.355,177.293 858.189,176.96 859,175.5C 860.394,173.612 861.56,171.612 862.5,169.5C 874.599,155.899 887.266,142.732 900.5,130C 908.07,123.716 916.403,118.716 925.5,115C 932.982,112.751 938.482,114.918 942,121.5C 943.284,130.307 942.118,138.64 938.5,146.5 Z"/></g>
<g><path style="opacity:1" fill="#d1cdc6" d="M 364.5,109.5 C 364.664,112.187 364.497,114.854 364,117.5C 361.243,120.429 359.076,123.762 357.5,127.5C 357.833,128.167 358.167,128.833 358.5,129.5C 355.253,132.377 352.92,135.711 351.5,139.5C 348.833,140.833 346.167,142.167 343.5,143.5C 345.077,141.416 346.91,139.416 349,137.5C 353.662,127.726 358.829,118.393 364.5,109.5 Z"/></g>
<g><path style="opacity:1" fill="#efece7" d="M 857.5,125.5 C 857.665,128.85 857.498,132.183 857,135.5C 856.722,136.416 856.222,137.082 855.5,137.5C 855.956,133.336 856.622,129.336 857.5,125.5 Z"/></g>
<g><path style="opacity:1" fill="#d0cac1" d="M 167.5,127.5 C 167.16,129.679 166.16,131.512 164.5,133C 165.108,133.87 165.941,134.37 167,134.5C 170.896,132.44 174.729,130.107 178.5,127.5C 172.561,133.054 166.728,138.72 161,144.5C 157.951,148.043 155.118,151.709 152.5,155.5C 151.957,155.56 151.624,155.893 151.5,156.5C 162.993,157.824 174.326,157.824 185.5,156.5C 188.833,156.5 192.167,156.5 195.5,156.5C 196.232,150.25 197.566,144.25 199.5,138.5C 201.651,146.549 199.984,153.715 194.5,160C 195.451,160.718 195.617,161.551 195,162.5C 191.59,163.874 191.757,164.541 195.5,164.5C 196.816,169.893 195.483,174.56 191.5,178.5C 191.5,177.5 191.5,176.5 191.5,175.5C 192.477,172.713 192.81,169.713 192.5,166.5C 174.828,166.95 157.161,167.617 139.5,168.5C 136.383,172.429 133.05,176.096 129.5,179.5C 127.563,180.59 125.73,181.924 124,183.5C 121.931,187.97 119.598,192.303 117,196.5C 116.667,196.167 116.333,195.833 116,195.5C 115.501,199.486 115.334,203.486 115.5,207.5C 113.517,207.157 112.183,207.824 111.5,209.5C 106.844,211.795 101.844,212.628 96.5,212C 95.4238,210.274 95.2571,208.441 96,206.5C 98.0359,201.536 100.536,196.87 103.5,192.5C 110.596,183.988 117.929,175.655 125.5,167.5C 126.043,167.44 126.376,167.107 126.5,166.5C 122.351,165.191 118.351,165.191 114.5,166.5C 109.693,167.041 105.026,167.874 100.5,169C 104.11,162.726 109.443,158.726 116.5,157C 123.167,156.667 129.833,156.333 136.5,156C 146.424,145.904 156.757,136.404 167.5,127.5 Z"/></g>
<g><path style="opacity:1" fill="#d3cec8" d="M 512.5,137.5 C 506.476,144.632 500.81,151.965 495.5,159.5C 495.092,156.401 496.259,154.067 499,152.5C 499.333,151.167 499.667,149.833 500,148.5C 500.317,150.301 500.984,150.634 502,149.5C 503.158,146.428 504.491,143.428 506,140.5C 507.734,138.549 509.901,137.549 512.5,137.5 Z"/></g>
<g><path style="opacity:1" fill="#f4f3ef" d="M 273.5,140.5 C 273.196,149.337 274.196,158.003 276.5,166.5C 274.282,163.281 273.115,159.614 273,155.5C 272.184,150.316 272.35,145.316 273.5,140.5 Z"/></g>
<g><path style="opacity:1" fill="#d0cbc2" d="M 941.5,200.5 C 942.809,197.814 943.809,194.98 944.5,192C 943.207,191.51 941.873,191.343 940.5,191.5C 943.989,188.863 947.655,186.363 951.5,184C 967.529,168.305 983.196,152.305 998.5,136C 1001.17,135.838 1003.17,137.005 1004.5,139.5C 988.176,158.991 970.509,177.157 951.5,194C 948.28,196.437 944.947,198.603 941.5,200.5 Z"/></g>
<g><path style="opacity:1" fill="#d5d1cc" d="M 290.5,145.5 C 292.435,151.929 293.768,158.596 294.5,165.5C 292.964,163.975 291.964,161.975 291.5,159.5C 290.507,154.88 290.173,150.214 290.5,145.5 Z"/></g>
<g><path style="opacity:1" fill="#dbd7d1" d="M 215.5,146.5 C 215.075,151.077 214.075,155.41 212.5,159.5C 211.839,154.644 212.839,150.31 215.5,146.5 Z"/></g>
<g><path style="opacity:1" fill="#f4f0eb" d="M 152.5,155.5 C 163.321,156.495 174.321,156.828 185.5,156.5C 174.326,157.824 162.993,157.824 151.5,156.5C 151.624,155.893 151.957,155.56 152.5,155.5 Z"/></g>
<g><path style="opacity:1" fill="#f3f0ea" d="M 335.5,162.5 C 335.33,161.178 335.663,160.011 336.5,159C 335.423,158.53 334.423,158.697 333.5,159.5C 334.348,157.907 335.681,156.74 337.5,156C 338.167,155.333 338.833,155.333 339.5,156C 338.731,158.584 337.398,160.75 335.5,162.5 Z"/></g>
<g><path style="opacity:1" fill="#d3cfc7" d="M 573.5,148.5 C 568.721,158.39 564.221,168.39 560,178.5C 558.925,182.77 558.425,187.103 558.5,191.5C 556.771,190.047 555.771,188.047 555.5,185.5C 557.45,181.01 559.45,176.51 561.5,172C 560.141,168.589 560.641,165.422 563,162.5C 563.414,162.957 563.914,163.291 564.5,163.5C 566.798,157.875 569.798,152.875 573.5,148.5 Z"/></g>
<g><path style="opacity:1" fill="#f5f1ec" d="M 546.5,168.5 C 546.5,167.167 545.833,166.5 544.5,166.5C 546.127,164.37 547.96,162.37 550,160.5C 550.204,163.76 549.037,166.427 546.5,168.5 Z"/></g>
<g><path style="opacity:1" fill="#e2dfd9" d="M 114.5,166.5 C 118.351,165.191 122.351,165.191 126.5,166.5C 126.376,167.107 126.043,167.44 125.5,167.5C 122.038,166.518 118.371,166.185 114.5,166.5 Z"/></g>
<g><path style="opacity:1" fill="#f6f3ed" d="M 403.5,173.5 C 403.5,172.167 402.833,171.5 401.5,171.5C 402.833,169.5 404.167,167.5 405.5,165.5C 406.575,164.438 407.575,164.438 408.5,165.5C 406.808,168.231 405.142,170.898 403.5,173.5 Z"/></g>
<g><path style="opacity:1" fill="#f3f0eb" d="M 687.5,160.5 C 688.573,161.251 688.74,162.251 688,163.5C 687.098,165.431 685.931,167.097 684.5,168.5C 684.591,166.302 683.925,165.969 682.5,167.5C 683.754,164.907 685.42,162.573 687.5,160.5 Z"/></g>
<g><path style="opacity:1" fill="#f6f4ef" d="M 759.5,171.5 C 759.573,169.973 758.906,168.973 757.5,168.5C 759.795,165.703 762.295,163.036 765,160.5C 765.667,161.5 765.667,162.5 765,163.5C 762.897,166.059 761.064,168.726 759.5,171.5 Z"/></g>
<g><path style="opacity:1" fill="#f5f1ec" d="M 861.5,165.5 C 861.232,167.099 861.566,168.432 862.5,169.5C 861.56,171.612 860.394,173.612 859,175.5C 858.189,176.96 857.355,177.293 856.5,176.5C 858.375,172.85 860.042,169.183 861.5,165.5 Z"/></g>
<g><path style="opacity:1" fill="#d1ccc3" d="M 415.5,145.5 C 415.657,146.873 415.49,148.207 415,149.5C 414.333,150.833 413.667,150.833 413,149.5C 412.017,151.448 410.85,153.282 409.5,155C 405.482,155.863 403.482,158.363 403.5,162.5C 398.038,162.964 395.371,165.964 395.5,171.5C 396.978,171.762 398.311,171.429 399.5,170.5C 401.433,168.364 403.099,166.031 404.5,163.5C 405.298,163.957 405.631,164.624 405.5,165.5C 404.167,167.5 402.833,169.5 401.5,171.5C 392.293,180.207 382.626,188.374 372.5,196C 365.635,200.597 358.635,204.93 351.5,209C 343.098,212.824 335.098,212.324 327.5,207.5C 327.5,207.167 327.5,206.833 327.5,206.5C 329.87,206.736 331.87,207.736 333.5,209.5C 334.831,208.834 336.331,208.834 338,209.5C 341.967,208.373 345.967,207.373 350,206.5C 359.258,201.767 367.758,196.601 375.5,191C 373.367,188.323 371.7,188.323 370.5,191C 368.527,191.495 366.527,191.662 364.5,191.5C 367.989,188.863 371.655,186.363 375.5,184C 389.032,171.3 402.366,158.466 415.5,145.5 Z"/></g>
<g><path style="opacity:1" fill="#ede8e1" d="M 469.5,181.5 C 469.672,180.508 469.338,179.842 468.5,179.5C 469.122,178.373 469.955,177.373 471,176.5C 471.599,178.535 471.099,180.201 469.5,181.5 Z"/></g>
<g><path style="opacity:1" fill="#f3f1ec" d="M 605.5,199.5 C 604.05,194.192 604.384,188.859 606.5,183.5C 605.995,182.081 604.995,181.415 603.5,181.5C 605.437,180.069 607.27,178.402 609,176.5C 609.167,177 609.333,177.5 609.5,178C 606.182,184.79 604.849,191.957 605.5,199.5 Z"/></g>
<g><path style="opacity:1" fill="#d5d2cc" d="M 774.5,175.5 C 769.872,181.754 767.872,188.754 768.5,196.5C 767.357,193.024 767.19,189.358 768,185.5C 769.858,182.428 771.024,179.095 771.5,175.5C 772.5,175.5 773.5,175.5 774.5,175.5 Z"/></g>
<g><path style="opacity:1" fill="#d2cec8" d="M 129.5,179.5 C 124.821,186.19 120.655,193.19 117,200.5C 116.503,203.146 116.336,205.813 116.5,208.5C 114.784,208.629 113.117,208.962 111.5,209.5C 112.183,207.824 113.517,207.157 115.5,207.5C 115.334,203.486 115.501,199.486 116,195.5C 116.333,195.833 116.667,196.167 117,196.5C 119.598,192.303 121.931,187.97 124,183.5C 125.73,181.924 127.563,180.59 129.5,179.5 Z"/></g>
<g><path style="opacity:1" fill="#f6f5f3" d="M 191.5,175.5 C 191.5,176.5 191.5,177.5 191.5,178.5C 190.203,187.505 190.203,196.505 191.5,205.5C 190.732,204.737 190.232,203.737 190,202.5C 189.077,193.272 189.577,184.272 191.5,175.5 Z"/></g>
<g><path style="opacity:1" fill="#f2efea" d="M 279.5,195.5 C 279.357,193.738 279.691,192.071 280.5,190.5C 278.955,189.548 277.288,189.215 275.5,189.5C 277.102,187.926 279.102,187.259 281.5,187.5C 281.706,190.495 281.04,193.162 279.5,195.5 Z"/></g>
<g><path style="opacity:1" fill="#fdfcfb" d="M 275.5,189.5 C 277.288,189.215 278.955,189.548 280.5,190.5C 279.691,192.071 279.357,193.738 279.5,195.5C 276.44,207.057 268.94,213.391 257,214.5C 250.246,215.747 247.58,213.08 249,206.5C 256.684,198.916 265.517,193.249 275.5,189.5 Z"/></g>
<g><path style="opacity:1" fill="#d0ccc5" d="M 707.5,155.5 C 704.819,163.378 701.653,171.044 698,178.5C 695.842,183.083 695.342,187.749 696.5,192.5C 697.492,194.026 698.992,194.693 701,194.5C 702.878,194.304 704.712,193.971 706.5,193.5C 706.804,194.15 707.137,194.817 707.5,195.5C 701.358,198.605 696.025,197.605 691.5,192.5C 693.372,184.087 696.372,176.087 700.5,168.5C 699.998,167.284 699.665,166.117 699.5,165C 702.648,163.62 704.148,161.12 704,157.5C 704.816,156.177 705.983,155.511 707.5,155.5 Z"/></g>
<g><path style="opacity:1" fill="#d3d0c9" d="M 853.5,191.5 C 848.87,196.792 845.537,202.792 843.5,209.5C 839.48,211.509 835.48,211.842 831.5,210.5C 835.049,210.561 838.382,209.727 841.5,208C 842.857,202.242 845.857,197.575 850.5,194C 850.167,193.667 849.833,193.333 849.5,193C 850.563,191.812 851.897,191.312 853.5,191.5 Z"/></g>
<g><path style="opacity:1" fill="#f1f0ee" d="M 911.5,186.5 C 910.836,191.473 910.503,196.473 910.5,201.5C 909.838,199.696 909.505,197.696 909.5,195.5C 909.343,192.186 910.009,189.186 911.5,186.5 Z"/></g>
<g><path style="opacity:1" fill="#d0cdc5" d="M 684.5,171.5 C 684.453,174.568 683.953,177.568 683,180.5C 682.667,180.167 682.333,179.833 682,179.5C 678.921,188.246 677.921,197.246 679,206.5C 681.124,207.227 683.291,207.894 685.5,208.5C 687.371,207.233 689.204,207.233 691,208.5C 696.083,205.545 701.583,203.712 707.5,203C 709.5,201 711.5,199 713.5,197C 719.126,195.464 723.959,192.631 728,188.5C 728.333,188.833 728.667,189.167 729,189.5C 730.001,185.741 732.501,184.074 736.5,184.5C 723.518,195.95 708.852,204.784 692.5,211C 688.463,211.607 684.463,211.44 680.5,210.5C 677.006,206.19 675.672,201.19 676.5,195.5C 677.501,186.856 680.168,178.856 684.5,171.5 Z"/></g>
<g><path style="opacity:1" fill="#f5f2ee" d="M 709.5,191.5 C 708.71,192.401 707.71,193.068 706.5,193.5C 704.712,193.971 702.878,194.304 701,194.5C 698.992,194.693 697.492,194.026 696.5,192.5C 697.967,192.894 699.467,193.227 701,193.5C 703.822,192.725 706.656,192.058 709.5,191.5 Z"/></g>
<g><path style="opacity:1" fill="#d3cec8" d="M 296.5,192.5 C 292.598,203.065 285.598,210.732 275.5,215.5C 277.42,213.534 279.42,211.534 281.5,209.5C 281.291,208.914 280.957,208.414 280.5,208C 283.007,207.907 285.174,207.074 287,205.5C 288.787,202.051 290.954,198.884 293.5,196C 292.639,193.679 293.639,192.513 296.5,192.5 Z"/></g>
<g><path style="opacity:1" fill="#efeee9" d="M 396.5,188.5 C 395.686,193.119 395.353,197.786 395.5,202.5C 394.838,200.696 394.505,198.696 394.5,196.5C 394.287,193.473 394.953,190.807 396.5,188.5 Z"/></g>
<g><path style="opacity:1" fill="#f2efea" d="M 467.5,191.5 C 467.016,196.759 467.683,201.759 469.5,206.5C 468.542,206.047 467.708,205.381 467,204.5C 466.186,199.98 466.353,195.646 467.5,191.5 Z"/></g>
<g><path style="opacity:1" fill="#f3f0ec" d="M 324.5,189.5 C 323.802,195.582 324.802,201.249 327.5,206.5C 327.5,206.833 327.5,207.167 327.5,207.5C 325.827,206.657 324.66,205.324 324,203.5C 323.185,198.648 323.352,193.981 324.5,189.5 Z"/></g>
<g><path style="opacity:1" fill="#f3f0ec" d="M 676.5,195.5 C 675.672,201.19 677.006,206.19 680.5,210.5C 678.248,210.084 676.748,208.751 676,206.5C 675.19,202.642 675.357,198.976 676.5,195.5 Z"/></g>
<g><path style="opacity:1" fill="#d5d1cb" d="M 192.5,207.5 C 194.761,208.252 196.927,209.252 199,210.5C 200.537,209.886 201.87,209.886 203,210.5C 203.483,209.552 203.649,208.552 203.5,207.5C 205.833,207.5 208.167,207.5 210.5,207.5C 206.437,211.852 201.437,213.352 195.5,212C 193.859,210.871 192.859,209.371 192.5,207.5 Z"/></g>
<g><path style="opacity:1" fill="#d6d3cd" d="M 399.5,207.5 C 402.691,208.896 406.024,209.896 409.5,210.5C 411.839,210.331 414.006,209.664 416,208.5C 417.011,209.337 418.178,209.67 419.5,209.5C 414.775,211.401 409.775,211.901 404.5,211C 402.416,210.303 400.749,209.136 399.5,207.5 Z"/></g>
<g><path style="opacity:1" fill="#d8d5ce" d="M 471.5,208.5 C 475.454,209.381 479.454,210.048 483.5,210.5C 480.696,211.638 477.696,211.805 474.5,211C 473.058,210.623 472.058,209.79 471.5,208.5 Z"/></g>
</svg>
