<?xml version="1.0" encoding="UTF-8"?>
<!DOCTYPE svg PUBLIC "-//W3C//DTD SVG 1.1//EN" "http://www.w3.org/Graphics/SVG/1.1/DTD/svg11.dtd">
<svg xmlns="http://www.w3.org/2000/svg" version="1.1" width="1023px" height="355px" style="shape-rendering:geometricPrecision; text-rendering:geometricPrecision; image-rendering:optimizeQuality; fill-rule:evenodd; clip-rule:evenodd" xmlns:xlink="http://www.w3.org/1999/xlink">
<g><path style="opacity:1" fill="#fefefe" d="M -0.5,-0.5 C 340.5,-0.5 681.5,-0.5 1022.5,-0.5C 1022.5,117.833 1022.5,236.167 1022.5,354.5C 681.5,354.5 340.5,354.5 -0.5,354.5C -0.5,236.167 -0.5,117.833 -0.5,-0.5 Z"/></g>
<g><path style="opacity:1" fill="#f6f4ef" d="M 300.5,106.5 C 296.433,108.054 292.1,108.72 287.5,108.5C 291.591,107.105 295.924,106.438 300.5,106.5 Z"/></g>
<g><path style="opacity:1" fill="#d0cac0" d="M 454.5,132.5 C 453.957,132.56 453.624,132.893 453.5,133.5C 473.898,135.05 494.231,134.717 514.5,132.5C 515.116,133.202 515.116,134.202 514.5,135.5C 512.12,138.881 509.12,141.547 505.5,143.5C 485.343,144.079 465.343,144.746 445.5,145.5C 442.806,148.876 440.473,152.543 438.5,156.5C 437.094,156.973 436.427,157.973 436.5,159.5C 433.559,165.101 430.226,170.435 426.5,175.5C 423.043,179.717 420.043,184.383 417.5,189.5C 417.863,190.183 418.196,190.85 418.5,191.5C 415.425,198.126 413.425,205.126 412.5,212.5C 412.187,216.355 413.52,219.522 416.5,222C 421.589,222.826 426.589,222.492 431.5,221C 441.101,216.886 449.435,211.052 456.5,203.5C 457.919,207.404 457.419,211.07 455,214.5C 441.652,227.424 425.819,235.424 407.5,238.5C 404.56,238.617 401.893,237.95 399.5,236.5C 398.167,234.5 396.5,232.833 394.5,231.5C 392.677,225.629 392.177,219.629 393,213.5C 394.713,206.966 396.88,200.633 399.5,194.5C 401.957,191.249 403.624,187.582 404.5,183.5C 406.316,181.882 407.649,179.882 408.5,177.5C 409.751,176.528 409.418,175.861 407.5,175.5C 406.584,175.543 405.917,175.876 405.5,176.5C 395.598,177.191 385.931,176.191 376.5,173.5C 374.55,183.513 370.383,192.513 364,200.5C 349.967,219.093 331.801,231.593 309.5,238C 295.659,241.602 284.159,238.102 275,227.5C 271.666,220.533 270.666,213.2 272,205.5C 278.929,180.901 294.096,163.401 317.5,153C 321.447,151.846 325.447,151.013 329.5,150.5C 334.167,150.5 338.833,150.5 343.5,150.5C 343.5,148.167 343.5,145.833 343.5,143.5C 343.933,140.805 345.266,138.638 347.5,137C 362.33,137.319 372.33,144.485 377.5,158.5C 381.167,160.667 384.833,162.833 388.5,165C 397.589,167.138 406.589,166.971 415.5,164.5C 419.625,158.419 423.625,152.252 427.5,146C 427.272,145.601 426.938,145.435 426.5,145.5C 418.5,144.833 410.5,144.167 402.5,143.5C 405.146,139.355 408.813,136.521 413.5,135C 420.826,134.5 428.159,134.334 435.5,134.5C 439.673,125.136 445.673,116.969 453.5,110C 460.294,105.834 467.627,104.501 475.5,106C 467.159,113.893 460.159,122.727 454.5,132.5 Z"/></g>
<g><path style="opacity:1" fill="#d0cac1" d="M 219.5,169.5 C 218.957,169.56 218.624,169.893 218.5,170.5C 228.325,171.823 237.992,171.823 247.5,170.5C 250.5,170.5 253.5,170.5 256.5,170.5C 258.256,171.552 258.923,173.219 258.5,175.5C 254.776,178.695 250.443,180.862 245.5,182C 234.5,182.333 223.5,182.667 212.5,183C 199.214,206.075 186.881,229.575 175.5,253.5C 173.363,254.942 171.03,256.109 168.5,257C 169.696,257.654 169.696,258.154 168.5,258.5C 164.958,258.638 161.292,258.305 157.5,257.5C 156.391,255.786 157.058,255.119 159.5,255.5C 159.5,253.167 159.5,250.833 159.5,248.5C 170.521,226.797 181.854,205.13 193.5,183.5C 190.572,182.516 187.572,182.183 184.5,182.5C 183.005,182.585 182.005,181.919 181.5,180.5C 182.688,180.693 184.022,180.193 185.5,179C 184.829,178.014 184.829,176.847 185.5,175.5C 185.611,174.883 185.944,174.383 186.5,174C 191.153,172.77 195.82,171.603 200.5,170.5C 204.131,164.234 207.464,157.901 210.5,151.5C 211.906,151.027 212.573,150.027 212.5,148.5C 215.899,141.369 219.566,134.369 223.5,127.5C 225.167,127.5 226.833,127.5 228.5,127.5C 229.371,124.728 229.371,122.062 228.5,119.5C 221.5,119.5 214.5,119.5 207.5,119.5C 207.5,120.5 207.5,121.5 207.5,122.5C 205.821,122.108 204.154,121.608 202.5,121C 203.267,119.53 203.933,118.03 204.5,116.5C 209.177,112.173 214.843,110.007 221.5,110C 243.67,109.832 265.67,109.332 287.5,108.5C 292.1,108.72 296.433,108.054 300.5,106.5C 304.296,106.218 307.963,106.218 311.5,106.5C 305.269,114.083 297.269,118.583 287.5,120C 273.155,120.167 258.822,120.667 244.5,121.5C 235.587,137.33 227.254,153.33 219.5,169.5 Z"/></g>
<g><path style="opacity:1" fill="#d2cec6" d="M 204.5,116.5 C 203.933,118.03 203.267,119.53 202.5,121C 204.154,121.608 205.821,122.108 207.5,122.5C 203.481,124.295 199.481,126.295 195.5,128.5C 195.998,122.955 198.998,118.955 204.5,116.5 Z"/></g>
<g><path style="opacity:1" fill="#d1cdc6" d="M 223.5,127.5 C 223.5,127.167 223.5,126.833 223.5,126.5C 224.725,125.063 225.725,123.396 226.5,121.5C 222.685,120.192 219.019,120.192 215.5,121.5C 212.873,122.092 210.206,122.425 207.5,122.5C 207.5,121.5 207.5,120.5 207.5,119.5C 214.5,119.5 221.5,119.5 228.5,119.5C 229.371,122.062 229.371,124.728 228.5,127.5C 226.833,127.5 225.167,127.5 223.5,127.5 Z"/></g>
<g><path style="opacity:1" fill="#d0cbc2" d="M 516.5,134.5 C 517.404,133.791 517.737,132.791 517.5,131.5C 518.345,130.329 519.011,128.995 519.5,127.5C 521.3,125.529 523.3,123.862 525.5,122.5C 530.795,122.351 535.462,120.684 539.5,117.5C 546.716,115.034 553.549,111.701 560,107.5C 559.956,109.279 559.289,110.945 558,112.5C 547.12,123.603 534.453,131.936 520,137.5C 517.725,137.722 516.559,136.722 516.5,134.5 Z"/></g>
<g><path style="opacity:1" fill="#f9f6f0" d="M 215.5,121.5 C 219.019,120.192 222.685,120.192 226.5,121.5C 225.725,123.396 224.725,125.063 223.5,126.5C 223.5,124.833 223.5,123.167 223.5,121.5C 220.833,121.5 218.167,121.5 215.5,121.5 Z"/></g>
<g><path style="opacity:1" fill="#f6f3ef" d="M 539.5,117.5 C 535.462,120.684 530.795,122.351 525.5,122.5C 524.5,122.5 523.5,122.5 522.5,122.5C 528.227,121.217 533.894,119.55 539.5,117.5 Z"/></g>
<g><path style="opacity:1" fill="#dddbd6" d="M 522.5,122.5 C 523.5,122.5 524.5,122.5 525.5,122.5C 523.3,123.862 521.3,125.529 519.5,127.5C 520.11,125.566 521.11,123.899 522.5,122.5 Z"/></g>
<g><path style="opacity:1" fill="#ecebe7" d="M 514.5,131.5 C 514.5,131.833 514.5,132.167 514.5,132.5C 494.231,134.717 473.898,135.05 453.5,133.5C 453.624,132.893 453.957,132.56 454.5,132.5C 474.384,133.985 494.384,133.652 514.5,131.5 Z"/></g>
<g><path style="opacity:1" fill="#e4dfd9" d="M 514.5,132.5 C 514.5,132.167 514.5,131.833 514.5,131.5C 515.5,131.5 516.5,131.5 517.5,131.5C 517.737,132.791 517.404,133.791 516.5,134.5C 515.833,134.833 515.167,135.167 514.5,135.5C 515.116,134.202 515.116,133.202 514.5,132.5 Z"/></g>
<g><path style="opacity:1" fill="#efece8" d="M 655.5,141.5 C 651.785,141.423 648.119,141.756 644.5,142.5C 644.611,141.883 644.944,141.383 645.5,141C 649.027,140.192 652.36,140.359 655.5,141.5 Z"/></g>
<g><path style="opacity:1" fill="#f5f3ef" d="M 823.5,143.5 C 815.576,141.338 807.576,141.005 799.5,142.5C 802.428,141.18 805.761,140.514 809.5,140.5C 812.833,140.667 816.167,140.833 819.5,141C 821.32,141.2 822.653,142.034 823.5,143.5 Z"/></g>
<g><path style="opacity:1" fill="#d0cac1" d="M 655.5,141.5 C 656.306,142.728 657.306,143.728 658.5,144.5C 657.389,149.391 656.389,154.391 655.5,159.5C 651.928,168.973 647.595,177.973 642.5,186.5C 640.241,187.344 639.241,189.011 639.5,191.5C 637.572,193.781 636.572,196.447 636.5,199.5C 634.777,201.253 633.277,203.253 632,205.5C 631.018,206.759 630.685,208.092 631,209.5C 633.717,206.29 636.217,202.956 638.5,199.5C 653.338,182.163 669.671,166.329 687.5,152C 693.391,147.887 699.724,144.554 706.5,142C 720.219,139.054 724.719,144.221 720,157.5C 711.122,175.255 702.289,192.922 693.5,210.5C 691.469,213.708 691.135,217.041 692.5,220.5C 693.69,223.077 695.69,223.91 698.5,223C 703.945,221.112 708.945,218.445 713.5,215C 723.683,206.48 733.516,197.647 743,188.5C 753.265,172.78 766.098,159.613 781.5,149C 787.383,146.561 793.383,144.394 799.5,142.5C 807.576,141.005 815.576,141.338 823.5,143.5C 827.295,144.898 830.962,146.565 834.5,148.5C 841.492,142.616 849.492,140.616 858.5,142.5C 842.802,161.899 832.469,183.899 827.5,208.5C 827.046,216.202 830.38,218.535 837.5,215.5C 839.153,215.34 840.486,214.674 841.5,213.5C 865.732,199.699 887.398,182.533 906.5,162C 909.793,162.298 911.293,164.131 911,167.5C 892.137,188.349 870.97,206.515 847.5,222C 810.421,242.091 799.088,232.258 813.5,192.5C 814.394,190.692 815.394,188.858 816.5,187C 816.167,186.5 815.833,186 815.5,185.5C 813.722,187.264 812.389,189.264 811.5,191.5C 803.594,199.068 795.594,206.735 787.5,214.5C 778.69,221.739 769.357,228.239 759.5,234C 754.276,236.514 748.776,238.014 743,238.5C 738.744,238.79 735.577,237.123 733.5,233.5C 730.852,226.038 730.852,218.538 733.5,211C 733.167,210.5 732.833,210 732.5,209.5C 731.451,211.216 730.118,212.549 728.5,213.5C 718.569,222.473 707.569,229.973 695.5,236C 673.581,241.721 666.748,233.888 675,212.5C 681.215,199.355 687.715,186.355 694.5,173.5C 697.909,169.621 699.242,165.287 698.5,160.5C 693.807,160.898 689.474,162.398 685.5,165C 661.64,186.194 639.14,208.694 618,232.5C 616.991,234.025 616.491,235.692 616.5,237.5C 612.151,238.54 607.818,238.54 603.5,237.5C 602.438,234.897 602.272,232.23 603,229.5C 603.377,228.058 604.21,227.058 605.5,226.5C 607.176,225.817 607.843,224.483 607.5,222.5C 608.5,222.5 609.5,222.5 610.5,222.5C 610.873,219.426 611.539,216.426 612.5,213.5C 613.5,213.5 614.5,213.5 615.5,213.5C 617.428,208.63 619.095,203.63 620.5,198.5C 621.227,196.046 622.227,193.713 623.5,191.5C 627.384,183.401 631.55,175.401 636,167.5C 636.497,165.19 636.663,162.857 636.5,160.5C 632.507,160.5 628.841,161.5 625.5,163.5C 623.513,162.836 621.846,161.669 620.5,160C 621.448,159.517 622.448,159.351 623.5,159.5C 624.166,155.009 626.833,152.843 631.5,153C 633.57,152.052 635.07,150.552 636,148.5C 637.364,149.258 638.531,148.758 639.5,147C 638.944,146.617 638.611,146.117 638.5,145.5C 640.033,143.755 642.033,142.755 644.5,142.5C 648.119,141.756 651.785,141.423 655.5,141.5 Z"/></g>
<g><path style="opacity:1" fill="#d7d5cf" d="M 402.5,143.5 C 410.5,144.167 418.5,144.833 426.5,145.5C 419.159,145.334 411.826,145.5 404.5,146C 403.128,146.402 401.795,146.902 400.5,147.5C 399.605,145.655 400.272,144.322 402.5,143.5 Z"/></g>
<g><path style="opacity:1" fill="#dad7d1" d="M 505.5,143.5 C 504.048,144.302 502.382,144.802 500.5,145C 482.17,145.5 463.836,145.667 445.5,145.5C 465.343,144.746 485.343,144.079 505.5,143.5 Z"/></g>
<g><path style="opacity:1" fill="#e3dfda" d="M 343.5,143.5 C 343.5,145.833 343.5,148.167 343.5,150.5C 338.833,150.5 334.167,150.5 329.5,150.5C 333.634,149.515 337.968,149.182 342.5,149.5C 342.205,147.265 342.539,145.265 343.5,143.5 Z"/></g>
<g><path style="opacity:1" fill="#e8e5e1" d="M 212.5,148.5 C 212.573,150.027 211.906,151.027 210.5,151.5C 210.427,149.973 211.094,148.973 212.5,148.5 Z"/></g>
<g><path style="opacity:1" fill="#d3cfc8" d="M 589.5,172.5 C 589.461,171.417 589.127,170.417 588.5,169.5C 588.846,168.304 589.346,168.304 590,169.5C 590.885,166.274 592.219,163.274 594,160.5C 596.15,152.661 593.317,149.827 585.5,152C 583.275,152.561 581.275,153.561 579.5,155C 578.351,156.604 578.351,158.27 579.5,160C 579.101,161.981 578.101,163.481 576.5,164.5C 576.781,159.888 577.781,155.555 579.5,151.5C 584.353,149.794 589.353,149.294 594.5,150C 595.99,150.745 596.99,151.912 597.5,153.5C 596.283,158.265 594.783,162.931 593,167.5C 591.97,169.346 590.804,171.013 589.5,172.5 Z"/></g>
<g><path style="opacity:1" fill="#d4d0ca" d="M 815.5,154.5 C 810.843,153.504 806.176,152.504 801.5,151.5C 798.113,151.964 794.78,152.631 791.5,153.5C 792.091,152.849 792.757,152.182 793.5,151.5C 801.367,149.578 808.7,150.578 815.5,154.5 Z"/></g>
<g><path style="opacity:1" fill="#cfc9bf" d="M 589.5,172.5 C 586.952,181.145 583.618,189.478 579.5,197.5C 577.811,199.883 576.978,202.549 577,205.5C 577.717,204.956 578.217,204.289 578.5,203.5C 581.452,207.154 580.618,209.821 576,211.5C 575.506,213.134 575.34,214.801 575.5,216.5C 573.518,219.81 571.185,222.81 568.5,225.5C 566.883,226.038 565.216,226.371 563.5,226.5C 563.918,232.415 561.252,236.081 555.5,237.5C 554.252,236.96 553.085,236.293 552,235.5C 554.63,228.56 556.13,221.227 556.5,213.5C 558.503,208.829 560.503,204.162 562.5,199.5C 563.674,198.486 564.34,197.153 564.5,195.5C 565.167,193.5 565.833,191.5 566.5,189.5C 568.008,187.819 569.008,185.819 569.5,183.5C 572.902,180.658 573.235,177.492 570.5,174C 574.147,171.872 576.147,168.705 576.5,164.5C 578.101,163.481 579.101,161.981 579.5,160C 578.351,158.27 578.351,156.604 579.5,155C 581.275,153.561 583.275,152.561 585.5,152C 593.317,149.827 596.15,152.661 594,160.5C 592.219,163.274 590.885,166.274 590,169.5C 589.346,168.304 588.846,168.304 588.5,169.5C 589.127,170.417 589.461,171.417 589.5,172.5 Z"/></g>
<g><path style="opacity:1" fill="#d9d5cf" d="M 658.5,144.5 C 659.629,146.628 659.796,148.961 659,151.5C 658.125,154.401 656.958,157.068 655.5,159.5C 656.389,154.391 657.389,149.391 658.5,144.5 Z"/></g>
<g><path style="opacity:1" fill="#fefdfd" d="M 815.5,154.5 C 818.989,157.137 822.655,159.637 826.5,162C 827.451,162.718 827.617,163.551 827,164.5C 814.196,176.304 801.696,188.47 789.5,201C 781.849,208.152 773.516,214.318 764.5,219.5C 760.865,220.114 757.198,220.448 753.5,220.5C 751.32,218.969 750.32,216.802 750.5,214C 755.623,187.885 769.29,167.719 791.5,153.5C 794.78,152.631 798.113,151.964 801.5,151.5C 806.176,152.504 810.843,153.504 815.5,154.5 Z"/></g>
<g><path style="opacity:1" fill="#e1ded7" d="M 503.5,155.5 C 501.786,156.738 499.786,157.405 497.5,157.5C 497.795,159.735 497.461,161.735 496.5,163.5C 496.5,161.167 496.5,158.833 496.5,156.5C 498.806,156.007 501.139,155.674 503.5,155.5 Z"/></g>
<g><path style="opacity:1" fill="#cfc9bf" d="M 505.5,181.5 C 500.296,192.239 494.796,202.905 489,213.5C 488.833,215.167 488.667,216.833 488.5,218.5C 488.288,221.011 488.955,223.178 490.5,225C 495.293,225.651 499.96,225.151 504.5,223.5C 506.833,223.5 509.167,223.5 511.5,223.5C 511.5,225.167 511.5,226.833 511.5,228.5C 510.127,228.343 508.793,228.51 507.5,229C 502.025,232.033 496.359,234.699 490.5,237C 485.806,237.564 481.14,237.397 476.5,236.5C 475.167,235.833 474.167,234.833 473.5,233.5C 471.728,229.051 471.228,224.384 472,219.5C 472.615,217.884 473.615,216.551 475,215.5C 475.939,208.607 478.939,202.94 484,198.5C 485.039,196.254 486.206,194.087 487.5,192C 487.167,191.667 486.833,191.333 486.5,191C 488.721,186.716 490.554,182.216 492,177.5C 493,176.833 494,176.167 495,175.5C 495.497,172.854 495.664,170.187 495.5,167.5C 499.444,165.469 502.11,162.302 503.5,158C 506.063,156.921 508.729,156.421 511.5,156.5C 511.823,160.226 511.489,163.893 510.5,167.5C 507.67,169.322 505.67,171.822 504.5,175C 505.428,175.388 506.095,176.055 506.5,177C 505.852,178.44 505.519,179.94 505.5,181.5 Z"/></g>
<g><path style="opacity:1" fill="#f4f2ec" d="M 579.5,151.5 C 577.781,155.555 576.781,159.888 576.5,164.5C 576.167,164.5 575.833,164.5 575.5,164.5C 576.292,160.084 576.625,155.751 576.5,151.5C 577.5,151.5 578.5,151.5 579.5,151.5 Z"/></g>
<g><path style="opacity:1" fill="#fefefd" d="M 317.5,226.5 C 296.636,232.802 287.469,225.135 290,203.5C 291.676,198.31 293.843,193.31 296.5,188.5C 305.916,173.916 318.916,164.083 335.5,159C 339.5,158.333 343.5,158.333 347.5,159C 351.134,161.153 354.801,163.32 358.5,165.5C 359.657,168.784 359.824,172.118 359,175.5C 356.629,183.624 353.295,191.29 349,198.5C 344.524,204.61 339.691,210.443 334.5,216C 329.112,220.023 323.446,223.523 317.5,226.5 Z"/></g>
<g><path style="opacity:1" fill="#e8e5df" d="M 438.5,156.5 C 438.573,158.027 437.906,159.027 436.5,159.5C 436.427,157.973 437.094,156.973 438.5,156.5 Z"/></g>
<g><path style="opacity:1" fill="#f6f3ee" d="M 698.5,160.5 C 699.242,165.287 697.909,169.621 694.5,173.5C 696.114,169.268 697.447,164.934 698.5,160.5 Z"/></g>
<g><path style="opacity:1" fill="#d2d0ca" d="M 258.5,175.5 C 258.923,173.219 258.256,171.552 256.5,170.5C 259.615,168.965 262.949,168.131 266.5,168C 263.964,170.705 261.297,173.205 258.5,175.5 Z"/></g>
<g><path style="opacity:1" fill="#f9f7f3" d="M 219.5,169.5 C 228.652,170.494 237.985,170.827 247.5,170.5C 237.992,171.823 228.325,171.823 218.5,170.5C 218.624,169.893 218.957,169.56 219.5,169.5 Z"/></g>
<g><path style="opacity:1" fill="#d0ccc4" d="M 503.5,155.5 C 507.167,155.5 510.833,155.5 514.5,155.5C 514.656,159.582 514.156,163.582 513,167.5C 510.578,172.317 508.078,176.984 505.5,181.5C 505.519,179.94 505.852,178.44 506.5,177C 506.095,176.055 505.428,175.388 504.5,175C 505.67,171.822 507.67,169.322 510.5,167.5C 511.489,163.893 511.823,160.226 511.5,156.5C 508.729,156.421 506.063,156.921 503.5,158C 502.11,162.302 499.444,165.469 495.5,167.5C 495.833,166.167 496.167,164.833 496.5,163.5C 497.461,161.735 497.795,159.735 497.5,157.5C 499.786,157.405 501.786,156.738 503.5,155.5 Z"/></g>
<g><path style="opacity:1" fill="#d1ccc3" d="M 638.5,145.5 C 638.611,146.117 638.944,146.617 639.5,147C 638.531,148.758 637.364,149.258 636,148.5C 635.07,150.552 633.57,152.052 631.5,153C 626.833,152.843 624.166,155.009 623.5,159.5C 622.448,159.351 621.448,159.517 620.5,160C 621.846,161.669 623.513,162.836 625.5,163.5C 609.174,178.163 594.174,194.163 580.5,211.5C 578.413,212.585 577.08,214.251 576.5,216.5C 576.167,216.5 575.833,216.5 575.5,216.5C 575.34,214.801 575.506,213.134 576,211.5C 580.618,209.821 581.452,207.154 578.5,203.5C 579.6,202.395 580.267,201.062 580.5,199.5C 595.268,181.565 611.601,165.065 629.5,150C 632.411,148.239 635.411,146.739 638.5,145.5 Z"/></g>
<g><path style="opacity:1" fill="#eae7e3" d="M 405.5,176.5 C 405.917,175.876 406.584,175.543 407.5,175.5C 409.418,175.861 409.751,176.528 408.5,177.5C 407.791,176.596 406.791,176.263 405.5,176.5 Z"/></g>
<g><path style="opacity:1" fill="#d3d0c9" d="M 185.5,175.5 C 184.829,176.847 184.829,178.014 185.5,179C 184.022,180.193 182.688,180.693 181.5,180.5C 182.005,181.919 183.005,182.585 184.5,182.5C 182.35,183.67 180.016,184.67 177.5,185.5C 177.167,185.167 176.833,184.833 176.5,184.5C 178.903,180.763 181.903,177.763 185.5,175.5 Z"/></g>
<g><path style="opacity:1" fill="#d3cfc9" d="M 426.5,175.5 C 424.326,181.182 421.659,186.516 418.5,191.5C 418.196,190.85 417.863,190.183 417.5,189.5C 420.043,184.383 423.043,179.717 426.5,175.5 Z"/></g>
<g><path style="opacity:1" fill="#f7f5ef" d="M 569.5,183.5 C 569.008,185.819 568.008,187.819 566.5,189.5C 566.167,188.5 565.5,187.833 564.5,187.5C 565.855,185.071 567.522,183.738 569.5,183.5 Z"/></g>
<g><path style="opacity:1" fill="#dbd8d2" d="M 642.5,186.5 C 642.25,188.674 641.25,190.341 639.5,191.5C 639.241,189.011 640.241,187.344 642.5,186.5 Z"/></g>
<g><path style="opacity:1" fill="#f4f3ed" d="M 404.5,183.5 C 403.624,187.582 401.957,191.249 399.5,194.5C 400.376,190.418 402.043,186.751 404.5,183.5 Z"/></g>
<g><path style="opacity:1" fill="#f4f1ec" d="M 813.5,192.5 C 813.591,190.302 812.925,189.969 811.5,191.5C 812.389,189.264 813.722,187.264 815.5,185.5C 815.833,186 816.167,186.5 816.5,187C 815.394,188.858 814.394,190.692 813.5,192.5 Z"/></g>
<g><path style="opacity:1" fill="#d1cdc5" d="M 495.5,167.5 C 495.664,170.187 495.497,172.854 495,175.5C 494,176.167 493,176.833 492,177.5C 490.554,182.216 488.721,186.716 486.5,191C 486.833,191.333 487.167,191.667 487.5,192C 486.206,194.087 485.039,196.254 484,198.5C 478.939,202.94 475.939,208.607 475,215.5C 473.615,216.551 472.615,217.884 472,219.5C 471.228,224.384 471.728,229.051 473.5,233.5C 472.034,232.653 471.2,231.32 471,229.5C 470.333,225.5 470.333,221.5 471,217.5C 478.839,200.523 487.006,183.856 495.5,167.5 Z"/></g>
<g><path style="opacity:1" fill="#d0cbc2" d="M 575.5,164.5 C 575.833,164.5 576.167,164.5 576.5,164.5C 576.147,168.705 574.147,171.872 570.5,174C 573.235,177.492 572.902,180.658 569.5,183.5C 567.522,183.738 565.855,185.071 564.5,187.5C 551.019,199.981 537.019,211.815 522.5,223C 519.273,225.112 515.94,226.945 512.5,228.5C 512.167,228.5 511.833,228.5 511.5,228.5C 511.5,226.833 511.5,225.167 511.5,223.5C 509.167,223.5 506.833,223.5 504.5,223.5C 531.015,207.389 554.681,187.722 575.5,164.5 Z"/></g>
<g><path style="opacity:1" fill="#f5f3ef" d="M 623.5,191.5 C 622.227,193.713 621.227,196.046 620.5,198.5C 619.272,199.306 618.272,200.306 617.5,201.5C 618.628,198.562 619.795,195.562 621,192.5C 621.671,191.748 622.504,191.414 623.5,191.5 Z"/></g>
<g><path style="opacity:1" fill="#e6e4e0" d="M 564.5,195.5 C 564.34,197.153 563.674,198.486 562.5,199.5C 562.229,197.62 562.896,196.287 564.5,195.5 Z"/></g>
<g><path style="opacity:1" fill="#d3cfc9" d="M 296.5,188.5 C 293.843,193.31 291.676,198.31 290,203.5C 287.469,225.135 296.636,232.802 317.5,226.5C 315.682,228.58 313.349,229.914 310.5,230.5C 305.197,229.764 299.863,229.264 294.5,229C 289.912,223.933 287.579,217.933 287.5,211C 287.778,204.352 288.778,197.852 290.5,191.5C 292.672,190.794 294.672,189.794 296.5,188.5 Z"/></g>
<g><path style="opacity:1" fill="#eeeae3" d="M 579.5,197.5 C 579.328,198.492 579.662,199.158 580.5,199.5C 580.267,201.062 579.6,202.395 578.5,203.5C 578.217,204.289 577.717,204.956 577,205.5C 576.978,202.549 577.811,199.883 579.5,197.5 Z"/></g>
<g><path style="opacity:1" fill="#f4f0eb" d="M 636.5,199.5 C 637.167,199.5 637.833,199.5 638.5,199.5C 636.217,202.956 633.717,206.29 631,209.5C 630.685,208.092 631.018,206.759 632,205.5C 633.277,203.253 634.777,201.253 636.5,199.5 Z"/></g>
<g><path style="opacity:1" fill="#d3cfc8" d="M 620.5,198.5 C 619.095,203.63 617.428,208.63 615.5,213.5C 614.5,213.5 613.5,213.5 612.5,213.5C 611.539,216.426 610.873,219.426 610.5,222.5C 609.5,222.5 608.5,222.5 607.5,222.5C 607.843,224.483 607.176,225.817 605.5,226.5C 608.756,217.801 612.756,209.468 617.5,201.5C 618.272,200.306 619.272,199.306 620.5,198.5 Z"/></g>
<g><path style="opacity:1" fill="#f0efea" d="M 580.5,211.5 C 579.92,213.749 578.587,215.415 576.5,216.5C 577.08,214.251 578.413,212.585 580.5,211.5 Z"/></g>
<g><path style="opacity:1" fill="#e9e6e1" d="M 841.5,213.5 C 840.486,214.674 839.153,215.34 837.5,215.5C 838.287,213.896 839.62,213.229 841.5,213.5 Z"/></g>
<g><path style="opacity:1" fill="#efede8" d="M 693.5,210.5 C 692.949,213.807 692.616,217.14 692.5,220.5C 691.135,217.041 691.469,213.708 693.5,210.5 Z"/></g>
<g><path style="opacity:1" fill="#f5f2ed" d="M 764.5,219.5 C 760.956,222.822 757.289,223.155 753.5,220.5C 757.198,220.448 760.865,220.114 764.5,219.5 Z"/></g>
<g><path style="opacity:1" fill="#d4d0ca" d="M 511.5,228.5 C 511.833,228.5 512.167,228.5 512.5,228.5C 509.865,230.823 506.865,232.656 503.5,234C 499.319,234.949 495.319,236.282 491.5,238C 487.5,238.667 483.5,238.667 479.5,238C 478.263,237.768 477.263,237.268 476.5,236.5C 481.14,237.397 485.806,237.564 490.5,237C 496.359,234.699 502.025,232.033 507.5,229C 508.793,228.51 510.127,228.343 511.5,228.5 Z"/></g>
<g><path style="opacity:1" fill="#f4f2ed" d="M 733.5,233.5 C 732.069,233.119 731.236,232.119 731,230.5C 730.667,225.167 730.333,219.833 730,214.5C 729.617,213.944 729.117,213.611 728.5,213.5C 730.118,212.549 731.451,211.216 732.5,209.5C 732.833,210 733.167,210.5 733.5,211C 730.852,218.538 730.852,226.038 733.5,233.5 Z"/></g>
<g><path style="opacity:1" fill="#f1eeea" d="M 394.5,231.5 C 396.5,232.833 398.167,234.5 399.5,236.5C 396.833,235.833 395.167,234.167 394.5,231.5 Z"/></g>
<g><path style="opacity:1" fill="#d0ccc5" d="M 556.5,213.5 C 556.13,221.227 554.63,228.56 552,235.5C 553.085,236.293 554.252,236.96 555.5,237.5C 561.252,236.081 563.918,232.415 563.5,226.5C 565.216,226.371 566.883,226.038 568.5,225.5C 566.037,228.763 564.37,232.43 563.5,236.5C 558.872,238.989 554.372,238.989 550,236.5C 549.848,228.149 552.014,220.482 556.5,213.5 Z"/></g>
<g><path style="opacity:1" fill="#d2cec7" d="M 159.5,248.5 C 159.5,250.833 159.5,253.167 159.5,255.5C 157.058,255.119 156.391,255.786 157.5,257.5C 161.292,258.305 164.958,258.638 168.5,258.5C 169.696,258.154 169.696,257.654 168.5,257C 171.03,256.109 173.363,254.942 175.5,253.5C 175.759,256.48 174.426,258.313 171.5,259C 165.985,260.89 160.319,261.724 154.5,261.5C 154.34,259.801 154.506,258.134 155,256.5C 155.86,253.367 157.36,250.7 159.5,248.5 Z"/></g>
</svg>
